# xmcd
#
# Track frame offsets:
#	183
#	18000
#	33303
#	43668
#	56960
#	72650
#	85535
#	98200
#	114240
#	134320
#	146713
#	161728
#	174083
#	187833
#	206348
#	220413
#	235283
#	249443
#	258768
#	269503
#
# Disc length: 3787 seconds
#
# Revision: 0
# Processed by: cddbd v1.4PL0 Copyright (c) Steve Scherf et al.
# Submitted via: dBpowerAMP V4.0
#
DISCID=150ec914
DTITLE=Kenny Rogers and The First Edition - 20 Songs At Their Best
DYEAR=1989
DGENRE=Country
TTITLE0=Something's Burning
TTITLE1=For The Good Times
TTITLE2=Where Does Rosie Go
TTITLE3=Ruby, Don't Take Your Love To Town
TTITLE4=All God's Lovely Children
TTITLE5=Elvira
TTITLE6=What Am I Gonna Do
TTITLE7=Tulsa Turnaround
TTITLE8=Lay It Down
TTITLE9=Me And Bobby McGee
TTITLE10=Tell It All, Brother
TTITLE11=Love Woman
TTITLE12=I'm Gonna Sing You A Sad Song, Susie
TTITLE13=The King Of Oak Street
TTITLE14=Shine On Ruby Mountain
TTITLE15=Heed The Call
TTITLE16=Molly
TTITLE17=Camptown Ladies
TTITLE18=We All Got To Help Each Other
TTITLE19=After All (I Love My Life)
EXTD=
EXTT0=
EXTT1=
EXTT2=
EXTT3=
EXTT4=
EXTT5=
EXTT6=
EXTT7=
EXTT8=
EXTT9=
EXTT10=
EXTT11=
EXTT12=
EXTT13=
EXTT14=
EXTT15=
EXTT16=
EXTT17=
EXTT18=
EXTT19=
PLAYORDER=
